<svg xmlns="http://www.w3.org/2000/svg" version="1.1" xmlns:xlink="http://www.w3.org/1999/xlink" xmlns:svgjs="http://svgjs.dev/svgjs" width="1000" height="1000" viewBox="0 0 1000 1000"><rect width="1000" height="1000" fill="#ffffff"></rect><g transform="matrix(0.7,0,0,0.7,149.57575757575756,425.47153761922243)"><svg viewBox="0 0 396 85" data-background-color="#ffffff" preserveAspectRatio="xMidYMid meet" height="214" width="1000" xmlns="http://www.w3.org/2000/svg" xmlns:xlink="http://www.w3.org/1999/xlink"><g id="tight-bounds" transform="matrix(1,0,0,1,0.2400000000000091,-0.21081907632782304)"><svg viewBox="0 0 395.52 85.42163815265565" height="85.42163815265565" width="395.52"><g><svg viewBox="0 0 534.187736905618 115.37012431112892" height="85.42163815265565" width="395.52"><g transform="matrix(1,0,0,1,138.66773690561797,33.01333293013595)"><svg viewBox="0 0 395.52 49.343458450857014" height="49.343458450857014" width="395.52"><g id="textblocktransform"><svg viewBox="0 0 395.52 49.343458450857014" height="49.343458450857014" width="395.52" id="textblock"><g><svg viewBox="0 0 395.52 49.343458450857014" height="49.343458450857014" width="395.52"><g transform="matrix(1,0,0,1,0,0)"><svg width="395.52" viewBox="4 -28.75 230.44000244140625 28.75" height="49.343458450857014" data-palette-color="#61777f"><path d="M4-28.75L4-28.75 10.3-28.75 10.3 0 4 0 4-28.75ZM19.3-28.75L19.3-28.75 25-28.75 35.3-19.05 35.3-11.5 25.6-20.65 25.6 0 19.3 0 19.3-28.75ZM53.75-28.75L53.75-28.75 48.1-28.75 37.75-19.05 37.75-11.5 47.45-20.65 47.45 0 53.75 0 53.75-28.75ZM62.75-25.3L62.75-25.3 68.45-28.75 78.75-28.75 78.75-23.1 69.05-23.1 69.05-17.2 78.75-17.2 78.75-11.5 69.05-11.5 69.05 0 62.75 0 62.75-25.3ZM97.2-25.3L97.2-25.3 91.3-28.75 81-28.75 81-23.1 90.9-23.1 90.9-17.2 81-17.2 81-11.5 90.9-11.5 90.9 0 97.2 0 97.2-25.3ZM102.09-3.4L102.09-25.3 107.94-28.75 118.29-28.75 118.29-22.85 108.59-22.85 108.59-5.65 118.09-5.65 118.09 0 107.94 0 102.09-3.4ZM130.24-19.45L136.74-19.45 136.74-25.3 130.89-28.75 120.54-28.75 120.54-22.85 130.24-22.85 130.24-19.45ZM136.74-3.4L136.74-17.2 120.54-17.2 120.54-11.5 130.24-11.5 130.24-5.65 120.74-5.65 120.74 0 130.89 0 136.74-3.4ZM145.74-28.75L145.74-28.75 161.74-28.75 161.74-22.85 152.04-22.85 152.04-17.2 161.74-17.2 161.74-11.5 152.04-11.5 152.04-5.65 161.54-5.65 161.54 0 145.74 0 145.74-28.75ZM164.19-5.65L164.19-5.65 164.19 0 180.19 0 180.19-5.65 164.19-5.65ZM180.19-22.85L180.19-22.85 180.19-28.75 163.99-28.75 163.99-22.85 180.19-22.85ZM172.09-11.5L172.09-11.5 172.09-17.2 163.99-17.2 163.99-11.5 172.09-11.5ZM185.69-25.3L185.69-25.3 191.39-28.75 201.69-28.75 201.69-23.1 191.99-23.1 191.99-17.2 201.69-17.2 201.69-11.5 191.99-11.5 191.99 0 185.69 0 185.69-25.3ZM220.14-25.3L220.14-25.3 214.24-28.75 203.94-28.75 203.94-23.1 213.84-23.1 213.84-17.2 203.94-17.2 203.94-11.5 213.84-11.5 213.84 0 220.14 0 220.14-25.3ZM228.13-28.75L228.13-28.75 234.44-28.75 234.44 0 228.13 0 228.13-28.75Z" opacity="1" transform="matrix(1,0,0,1,0,0)" fill="#000000" class="undefined-text-0" data-fill-palette-color="primary" id="text-0"></path></svg></g></svg></g></svg></g></svg></g><g><svg viewBox="0 0 115.37012431112892 115.37012431112892" height="115.37012431112892" width="115.37012431112892"><g><svg></svg></g><g id="icon-0"><svg viewBox="0 0 115.37012431112892 115.37012431112892" height="115.37012431112892" width="115.37012431112892"><g><path d="M0 57.685c0-31.859 25.826-57.685 57.685-57.685 31.859 0 57.685 25.826 57.685 57.685 0 31.859-25.826 57.685-57.685 57.685-31.859 0-57.685-25.826-57.685-57.685zM57.685 110.92c29.401 0 53.235-23.834 53.235-53.235 0-29.401-23.834-53.235-53.235-53.235-29.401 0-53.235 23.834-53.235 53.235 0 29.401 23.834 53.235 53.235 53.235z" data-fill-palette-color="accent" fill="#000000" stroke="transparent"></path></g><g transform="matrix(1,0,0,1,35.93428954884717,28.684032013274738)"><svg viewBox="0 0 43.50154521343458 58.00206028457944" height="58.00206028457944" width="43.50154521343458"><g><svg xmlns="http://www.w3.org/2000/svg" xmlns:xlink="http://www.w3.org/1999/xlink" version="1.1" x="0" y="0" viewBox="12 6 72 96" enable-background="new -2 4 100 100" xml:space="preserve" height="58.00206028457944" width="43.50154521343458" class="icon-s-0" data-fill-palette-color="accent" id="s-0"><g fill="#c8c8c8" data-fill-palette-color="accent"><path d="M72 30H60V18c0-6.617-5.383-12-12-12H16c-2.209 0-4 1.791-4 4v88c0 2.209 1.791 4 4 4h64c2.209 0 4-1.791 4-4V42C84 35.383 78.617 30 72 30zM76 94H20V14h28c2.206 0 4 1.794 4 4v16c0 2.209 1.791 4 4 4h16c2.206 0 4 1.794 4 4V94z" fill="#000000" data-fill-palette-color="accent"></path><path d="M77.172 28.829C77.952 29.609 78.977 30 80 30s2.048-0.391 2.828-1.171c1.562-1.562 1.562-4.095 0-5.657l-16-16c-1.561-1.562-4.096-1.562-5.656 0-1.562 1.562-1.562 4.095 0 5.657L77.172 28.829z" fill="#000000" data-fill-palette-color="accent"></path><path d="M62.828 61.172c-1.561-1.562-4.096-1.562-5.656 0L51 67.344l-4.171-4.172C46.078 62.422 45.061 62 44 62s-2.078 0.422-2.829 1.172l-16 16.001c-1.562 1.562-1.562 4.095 0 5.656 1.562 1.562 4.094 1.562 5.657 0L44 71.657l13.172 13.172c0.78 0.781 1.805 1.172 2.828 1.172s2.048-0.391 2.828-1.172c1.562-1.562 1.562-4.095 0-5.656L56.656 73 60 69.657l5.172 5.171C65.952 75.609 66.977 76 68 76s2.048-0.391 2.828-1.172c1.562-1.562 1.562-4.095 0-5.656L62.828 61.172z" fill="#000000" data-fill-palette-color="accent"></path></g><circle cx="60" cy="50" r="4.0" fill="#000000" data-fill-palette-color="accent"></circle></svg></g></svg></g></svg></g></svg></g></svg></g><defs></defs></svg><rect width="395.52" height="85.42163815265565" fill="none" stroke="none" visibility="hidden"></rect></g></svg></g></svg>